/* XPM */
static char *iconforge_xpm[] = {
/* width height ncolors chars_per_pixel */
"12 12 4 1",
/* colors */
"` c black",
"a c white",
"b c snow",
"c c orange",
/* pixels */
"aaaaaccaaaaa",
"aaaaaccaaaaa",
"aaaaaccaaaaa",
"aaaaaccaaaaa",
"aaaaaccaaaaa",
"aaaaaccaaaaa",
"aaaaaccaaaaa",
"aaccccccccaa",
"aaaccccccaaa",
"aaaaccccaaaa",
"aaaaaccaaaaa",
"aaaaaaaaaaaa"
};

