/* XPM */
static char * mapimcompletestarted_xpm[] = {
"12 12 4 1",
" 	c None",
".	c #FFFFFF",
"+	c #FE0000",
"@	c #2E8B57",
"............",
"...........+",
"..........+.",
".........+..",
"........++..",
".......++...",
"......++....",
"+....@@@....",
".@@.@@@.....",
"..@@@@@.....",
"...@@@......",
"....@......."};
