/* XPM */
static char * devstartedblink_xpm[] = {
"12 12 3 1",
" 	c None",
".	c #FF0000",
"+	c #008B3C",
"............",
"...........+",
"..........+.",
".........+..",
"........++..",
".......++...",
"......++....",
"+....+++....",
".++.+++.....",
"..+++++.....",
"...+++......",
"....+......."};
