/* XPM */
static char *iconforge_xpm[] = {
/* width height ncolors chars_per_pixel */
"12 12 3 1",
/* colors */
"` c black",
"a c none",
"b c red",
/* pixels */
"abbbaaaaaaab",
"abbbbaaaabba",
"aaabbbaabbaa",
"aaaabbbbbaaa",
"aaaaabbbaaaa",
"aaaabbbbaaaa",
"aaabbaabbaaa",
"aabbbaaabbaa",
"abbbaaaaabaa",
"bbbaaaaaaaba",
"bbbaaaaaaaab",
"aaaaaaaaaaaa",
};
