/* XPM */
static char * mapstarting2_xpm[] = {
"12 12 3 1",
" 	c None",
".	c #FFFFFF",
"+	c #29BAD3",
".....++.....",
".++..++..++.",
".+++.++.+++.",
"..++++++++..",
"...++++++...",
"++++++++++++",
"++++++++++++",
"...++++++...",
"..++++++++..",
".+++.++.+++.",
".++..++..++.",
".....++....."};
