/* XPM */
static char * devstopping_xpm[] = {
"12 12 62 1",
" 	c None",
".	c #FEFEFA",
"+	c #FEFCE5",
"@	c #FEFCE1",
"#	c #FDFBE7",
"$	c #FEFDE1",
"%	c #FEEE31",
"&	c #DAC800",
"*	c #FEEE3E",
"=	c #FEFAC6",
"-	c #FEFDEB",
";	c #FEF065",
">	c #FEEE34",
",	c #FDF06E",
"'	c #FDF8C8",
")	c #FEEE32",
"!	c #FDF5B3",
"~	c #FDF168",
"{	c #FEEE35",
"]	c #FEF26A",
"^	c #E1CE00",
"/	c #F2E012",
"(	c #FDF16E",
"_	c #FEEE33",
":	c #DDCA00",
"<	c #FEEF41",
"[	c #FEF164",
"}	c #F2E013",
"|	c #DECB00",
"1	c #FEEE3F",
"2	c #D8C600",
"3	c #F7E411",
"4	c #F4E108",
"5	c #D6C400",
"6	c #F7E40D",
"7	c #F3E00C",
"8	c #D9C700",
"9	c #F3E114",
"0	c #D3C200",
"a	c #CFBE00",
"b	c #D4C300",
"c	c #D4C200",
"d	c #F8E513",
"e	c #FDF16F",
"f	c #FAF6BF",
"g	c #CEBD00",
"h	c #D1C000",
"i	c #F7E30A",
"j	c #FEED30",
"k	c #D7C500",
"l	c #DCC900",
"m	c #DBC800",
"n	c #D2C000",
"o	c #FAE612",
"p	c #FEEE3D",
"q	c #D2C100",
"r	c #F5E20C",
"s	c #FEF167",
"t	c #FCF4A7",
"u	c #DCCA00",
"v	c #FDF16B",
"w	c #FEF16F",
".+@#$%&*=-@+",
"+;>,')&*!~{]",
"@>^/(_:<[}|1",
"#,/23456789,",
"$'(320abcdef",
"%)_40ggghij)",
"&&:5agggaklm",
"**<6bgggnop1",
"=![7chanqrst",
"-~}8dikoru}v",
"@{|9ejlps}u1",
"+]1,f)m1tv1w"};
