<?xml version="1.0" encoding="iso-8859-1"?>
<!-- Generator: Adobe Illustrator 19.0.0, SVG Export Plug-In . SVG Version: 6.00 Build 0)  -->
<svg version="1.1" id="Layer_1" xmlns="http://www.w3.org/2000/svg" xmlns:xlink="http://www.w3.org/1999/xlink" x="0px" y="0px"
	 viewBox="0 0 512 512" style="enable-background:new 0 0 512 512;" xml:space="preserve">
<circle style="fill:#FFC61B;" cx="256" cy="256" r="256"/>
<path style="fill:#EAA22F;" d="M279.53,510.914c90.179-8.22,166.831-63.197,205.519-140.493l-68.62-68.62l-7.452,5.865
	L222.834,121.522l-4.973-1.352l-4.813-4.108l-17.455-7.097l-47.337-0.514l-28.031,21.602l15.55,15.55l-1.327,2.353l34.063,34.063
	l4.508,34.854l4.405,4.405l-6.132,121.027l-48.807,12.16L279.53,510.914z M286.853,330.707l1.588,1.588l-3.539,0.365
	L286.853,330.707z"/>
<path style="fill:#386895;" d="M170.275,309.986h-1.108c-4.429,0-8.018-3.589-8.018-8.018V176.569c0-4.429,3.589-8.018,8.018-8.018
	h1.107c4.429,0,8.018,3.589,8.018,8.018v125.399C178.293,306.395,174.702,309.986,170.275,309.986z"/>
<path style="fill:#273B7A;" d="M380.121,366.875H152.566c-23.564,0-42.667-19.103-42.667-42.667l0,0
	c0-23.564,19.103-42.667,42.667-42.667h227.556c23.564,0,42.667,19.103,42.667,42.667l0,0
	C422.788,347.772,403.685,366.875,380.121,366.875z"/>
<path style="fill:#121149;" d="M380.121,281.541H264.907v85.333h115.214c23.564,0,42.667-19.103,42.667-42.667
	S403.685,281.541,380.121,281.541z"/>
<g>
	<circle style="fill:#6CAF5F;" cx="365.899" cy="324.215" r="8.62"/>
	<circle style="fill:#6CAF5F;" cx="218.074" cy="324.215" r="8.62"/>
	<circle style="fill:#6CAF5F;" cx="189.63" cy="324.215" r="8.62"/>
	<circle style="fill:#6CAF5F;" cx="161.185" cy="324.215" r="8.62"/>
</g>
<g>
	<path style="fill:#273B7A;" d="M188.768,165.3c-1.545,0-3.088-0.59-4.267-1.767c-7.154-7.151-18.791-7.151-25.947,0
		c-2.357,2.357-6.175,2.357-8.532,0c-2.357-2.355-2.357-6.177,0-8.532c11.859-11.859,31.151-11.859,43.01,0
		c2.357,2.355,2.357,6.177,0,8.532C191.855,164.711,190.312,165.3,188.768,165.3z"/>
	<path style="fill:#273B7A;" d="M138.714,149.723c-1.545,0-3.088-0.59-4.267-1.767c-2.357-2.355-2.357-6.175,0-8.532
		c9.904-9.906,23.073-15.36,37.079-15.36c0.002,0,0.002,0,0.002,0c14.007,0,27.177,5.454,37.081,15.36
		c2.357,2.355,2.357,6.177,0,8.532c-2.357,2.357-6.175,2.357-8.532,0c-7.627-7.625-17.765-11.824-28.55-11.824
		s-20.923,4.199-28.55,11.824C141.803,149.135,140.257,149.723,138.714,149.723z"/>
	<path style="fill:#273B7A;" d="M218.567,131.822c-1.545,0-3.088-0.59-4.267-1.767c-23.588-23.583-61.959-23.583-85.544,0
		c-2.357,2.357-6.175,2.357-8.532,0c-2.357-2.355-2.357-6.177,0-8.532c28.289-28.289,74.318-28.289,102.609,0
		c2.357,2.355,2.357,6.177,0,8.532C221.655,131.232,220.112,131.822,218.567,131.822z"/>
</g>
<g>
</g>
<g>
</g>
<g>
</g>
<g>
</g>
<g>
</g>
<g>
</g>
<g>
</g>
<g>
</g>
<g>
</g>
<g>
</g>
<g>
</g>
<g>
</g>
<g>
</g>
<g>
</g>
<g>
</g>
</svg>
